# xmcd CD database file
#
# Track frame offsets:
#	150
#	18845
#	31234
#
# Disc length: 723 seconds
#
# Revision: 0
# Processed by: cddbd v1.5.1PL0 Copyright (c) Steve Scherf et al.
# Submitted via: CDex 1.51
#
DISCID=1502d103
DTITLE=Vincent Gallo - Honey Bunny
DYEAR=2001
DGENRE=Rock
TTITLE0=So Sad-Yes I'm Lonly
TTITLE1=Lonly Boy
TTITLE2=Honey Bunny
EXTD=YEAR: 2001
EXTT0=
EXTT1=
EXTT2=
PLAYORDER=
